<svg id="Слой_1" xmlns="http://www.w3.org/2000/svg" viewBox="0 0 20.2 13.5" width="27" height="18"><style>.st0{fill:#001273;} .st1{fill:#D62922;} .st2{fill:#EDEDED;}</style><path class="st0" d="M0 0h20.2v13.5H0z"/><path class="st1" d="M12 0H8.3v5.3H0V9h8.3v4.5H12V9h8.2V5.3H12z"/><path class="st2" d="M20.2 2v-.6l-5.8 3.9H12V5l7.5-5h-.9L12 4.4V0h-.7v6h8.9v-.7h-4.9zM8.2 0v4.4L1.6 0H.7l7.5 5v.3H5.8L0 1.4V2l4.9 3.3H0V6h9V0zM8.2 9.1v.3L2 13.5h1L8.2 10v3.5H9V8.3H0v.8h5l-5 3.3v.6l5.9-3.9zM12 13.5V10l5.2 3.5h.9L12 9.4V9h2.3l5.9 4v-.6l-5-3.4h5v-.7h-8.9v5.2z"/><path class="st1" d="M20.2 0h-.7l-9.4 6.3L.7 0H0v1.4l8.7 5.8L0 13v.5h2l8.1-5.4 8 5.4h2.1V13l-8.7-5.8 8.7-5.8z"/></svg>