<svg xmlns="http://www.w3.org/2000/svg" viewBox="0 0 68 68"><path fill="#B2CFE7" d="M34.1 0C15.3 0 0 15.2 0 34c0 18.7 15.1 33.9 33.9 34 18.7.1 34-15.1 34.1-33.9C68.1 15.4 52.9.1 34.1 0zm-.2 66C16.2 65.9 2 51.6 2 34 2 16.3 16.4 2 34.1 2c17.7.1 32 14.5 31.9 32.1-.1 17.7-14.5 32-32.1 31.9z"/><path fill="#005FAF" d="M42.2 32.8c-.2-.2-.5-.3-.7-.3H28.6l13.6-15.4c.4-.4.4-1 0-1.4-.4-.4-1-.4-1.4 0l-15 17.2c-.4.4-.4 1 0 1.3.2.2.5.3.7.3h12.9L25.8 50.8c-.4.4-.4 1 0 1.4.4.4 1 .3 1.3 0l15.1-18c.4-.3.4-1 0-1.4z"/></svg>